<svg width="145" height="50" viewBox="0 0 145 50" fill="none" xmlns="http://www.w3.org/2000/svg">
<rect width="145" height="50" rx="5" fill="#0C2A4D"/>
<path d="M61.376 36L60.6514 33.6211H57.0078L56.2832 36H54L57.5273 25.9648H60.1182L63.6592 36H61.376ZM60.1455 31.8438C59.4756 29.6882 59.0973 28.4691 59.0107 28.1865C58.9287 27.904 58.8695 27.6807 58.833 27.5166C58.6826 28.0999 58.252 29.5423 57.541 31.8438H60.1455ZM68.957 36.1367C68.0592 36.1367 67.3551 35.8109 66.8447 35.1592H66.7354C66.8083 35.7972 66.8447 36.1663 66.8447 36.2666V39.3633H64.7598V28.3574H66.4551L66.749 29.3486H66.8447C67.3324 28.5921 68.0547 28.2139 69.0117 28.2139C69.9141 28.2139 70.6204 28.5625 71.1309 29.2598C71.6413 29.957 71.8965 30.9255 71.8965 32.165C71.8965 32.9808 71.7757 33.6895 71.5342 34.291C71.2972 34.8926 70.9577 35.3506 70.5156 35.665C70.0736 35.9795 69.554 36.1367 68.957 36.1367ZM68.3418 29.8818C67.8268 29.8818 67.4508 30.0413 67.2139 30.3604C66.9769 30.6748 66.8538 31.1966 66.8447 31.9258V32.1514C66.8447 32.9717 66.9655 33.5596 67.207 33.915C67.4531 34.2705 67.8405 34.4482 68.3691 34.4482C69.3034 34.4482 69.7705 33.6781 69.7705 32.1377C69.7705 31.3857 69.6543 30.8229 69.4219 30.4492C69.194 30.071 68.834 29.8818 68.3418 29.8818ZM77.8164 36.1367C76.9186 36.1367 76.2145 35.8109 75.7041 35.1592H75.5947C75.6676 35.7972 75.7041 36.1663 75.7041 36.2666V39.3633H73.6191V28.3574H75.3145L75.6084 29.3486H75.7041C76.1917 28.5921 76.9141 28.2139 77.8711 28.2139C78.7734 28.2139 79.4798 28.5625 79.9902 29.2598C80.5007 29.957 80.7559 30.9255 80.7559 32.165C80.7559 32.9808 80.6351 33.6895 80.3936 34.291C80.1566 34.8926 79.8171 35.3506 79.375 35.665C78.9329 35.9795 78.4134 36.1367 77.8164 36.1367ZM77.2012 29.8818C76.6862 29.8818 76.3102 30.0413 76.0732 30.3604C75.8363 30.6748 75.7132 31.1966 75.7041 31.9258V32.1514C75.7041 32.9717 75.8249 33.5596 76.0664 33.915C76.3125 34.2705 76.6999 34.4482 77.2285 34.4482C78.1628 34.4482 78.6299 33.6781 78.6299 32.1377C78.6299 31.3857 78.5137 30.8229 78.2812 30.4492C78.0534 30.071 77.6934 29.8818 77.2012 29.8818ZM92.1787 33.2246C92.1787 34.127 91.8529 34.8379 91.2012 35.3574C90.554 35.877 89.6517 36.1367 88.4941 36.1367C87.4277 36.1367 86.4844 35.9362 85.6641 35.5352V33.5664C86.3385 33.8672 86.9082 34.0791 87.373 34.2021C87.8424 34.3252 88.2708 34.3867 88.6582 34.3867C89.123 34.3867 89.4785 34.2979 89.7246 34.1201C89.9753 33.9424 90.1006 33.6781 90.1006 33.3271C90.1006 33.1312 90.0459 32.958 89.9365 32.8076C89.8271 32.6527 89.6654 32.5046 89.4512 32.3633C89.2415 32.222 88.8109 31.9964 88.1592 31.6865C87.5485 31.3994 87.0905 31.1237 86.7852 30.8594C86.4798 30.5951 86.236 30.2874 86.0537 29.9365C85.8714 29.5856 85.7803 29.1755 85.7803 28.7061C85.7803 27.8219 86.0788 27.127 86.6758 26.6211C87.2773 26.1152 88.1068 25.8623 89.1641 25.8623C89.6836 25.8623 90.1781 25.9238 90.6475 26.0469C91.1214 26.1699 91.6159 26.3431 92.1309 26.5664L91.4473 28.2139C90.9141 27.9951 90.472 27.8424 90.1211 27.7559C89.7747 27.6693 89.4329 27.626 89.0957 27.626C88.6947 27.626 88.387 27.7194 88.1729 27.9062C87.9587 28.0931 87.8516 28.3369 87.8516 28.6377C87.8516 28.8245 87.8949 28.9886 87.9814 29.1299C88.068 29.2666 88.2048 29.401 88.3916 29.5332C88.583 29.6608 89.0319 29.8932 89.7383 30.2305C90.6725 30.6771 91.3128 31.126 91.6592 31.5771C92.0055 32.0238 92.1787 32.5729 92.1787 33.2246ZM97.0459 34.4756C97.4105 34.4756 97.848 34.3958 98.3584 34.2363V35.7881C97.8389 36.0205 97.2008 36.1367 96.4443 36.1367C95.6104 36.1367 95.002 35.9271 94.6191 35.5078C94.2409 35.084 94.0518 34.4505 94.0518 33.6074V29.9229H93.0537V29.041L94.2021 28.3438L94.8037 26.7305H96.1367V28.3574H98.2764V29.9229H96.1367V33.6074C96.1367 33.9036 96.2188 34.1224 96.3828 34.2637C96.5514 34.4049 96.7725 34.4756 97.0459 34.4756ZM101.571 32.165C101.571 32.9215 101.694 33.4935 101.94 33.8809C102.191 34.2682 102.597 34.4619 103.157 34.4619C103.713 34.4619 104.112 34.2705 104.354 33.8877C104.6 33.5003 104.723 32.9261 104.723 32.165C104.723 31.4085 104.6 30.8411 104.354 30.4629C104.107 30.0846 103.704 29.8955 103.144 29.8955C102.588 29.8955 102.187 30.0846 101.94 30.4629C101.694 30.8366 101.571 31.404 101.571 32.165ZM106.855 32.165C106.855 33.4092 106.527 34.3822 105.871 35.084C105.215 35.7858 104.301 36.1367 103.13 36.1367C102.396 36.1367 101.749 35.9772 101.188 35.6582C100.628 35.3346 100.197 34.8721 99.8965 34.2705C99.5957 33.6689 99.4453 32.9671 99.4453 32.165C99.4453 30.9163 99.7712 29.9456 100.423 29.2529C101.075 28.5602 101.991 28.2139 103.171 28.2139C103.905 28.2139 104.552 28.3734 105.112 28.6924C105.673 29.0114 106.104 29.4694 106.404 30.0664C106.705 30.6634 106.855 31.363 106.855 32.165ZM112.844 28.2139C113.126 28.2139 113.361 28.2344 113.548 28.2754L113.391 30.2305C113.222 30.1849 113.017 30.1621 112.775 30.1621C112.11 30.1621 111.59 30.333 111.217 30.6748C110.848 31.0166 110.663 31.4951 110.663 32.1104V36H108.578V28.3574H110.157L110.465 29.6426H110.567C110.804 29.2142 111.123 28.8701 111.524 28.6104C111.93 28.346 112.37 28.2139 112.844 28.2139ZM118.101 29.6973C117.659 29.6973 117.312 29.8385 117.062 30.1211C116.811 30.3991 116.667 30.7956 116.631 31.3105H119.557C119.548 30.7956 119.413 30.3991 119.153 30.1211C118.894 29.8385 118.543 29.6973 118.101 29.6973ZM118.395 36.1367C117.164 36.1367 116.202 35.7972 115.51 35.1182C114.817 34.4391 114.471 33.4775 114.471 32.2334C114.471 30.9528 114.79 29.9639 115.428 29.2666C116.07 28.5648 116.957 28.2139 118.087 28.2139C119.167 28.2139 120.008 28.5215 120.609 29.1367C121.211 29.752 121.512 30.6019 121.512 31.6865V32.6982H116.583C116.606 33.2907 116.781 33.7533 117.109 34.0859C117.438 34.4186 117.898 34.585 118.49 34.585C118.951 34.585 119.386 34.5371 119.796 34.4414C120.206 34.3457 120.634 34.193 121.081 33.9834V35.5967C120.716 35.779 120.327 35.9134 119.912 36C119.497 36.0911 118.992 36.1367 118.395 36.1367Z" fill="white"/>
<path d="M59.3984 16.0898C59.3984 17.0326 59.1367 17.7539 58.6133 18.2539C58.0898 18.7513 57.3359 19 56.3516 19H54.7539V13.2891H56.5195C57.4284 13.2891 58.1354 13.5339 58.6406 14.0234C59.1458 14.513 59.3984 15.2018 59.3984 16.0898ZM58.4141 16.1211C58.4141 14.7539 57.7747 14.0703 56.4961 14.0703H55.6875V18.2148H56.3516C57.7266 18.2148 58.4141 17.5169 58.4141 16.1211ZM64.3633 16.832C64.3633 17.5378 64.1823 18.0885 63.8203 18.4844C63.4583 18.8802 62.9544 19.0781 62.3086 19.0781C61.9049 19.0781 61.5482 18.987 61.2383 18.8047C60.9284 18.6224 60.6901 18.3607 60.5234 18.0195C60.3568 17.6784 60.2734 17.2826 60.2734 16.832C60.2734 16.1315 60.4531 15.5846 60.8125 15.1914C61.1719 14.7982 61.6784 14.6016 62.332 14.6016C62.957 14.6016 63.4518 14.8034 63.8164 15.207C64.181 15.6081 64.3633 16.1497 64.3633 16.832ZM61.2188 16.832C61.2188 17.8294 61.5872 18.3281 62.3242 18.3281C63.0534 18.3281 63.418 17.8294 63.418 16.832C63.418 15.8451 63.0508 15.3516 62.3164 15.3516C61.931 15.3516 61.651 15.4792 61.4766 15.7344C61.3047 15.9896 61.2188 16.3555 61.2188 16.832ZM68.9648 19L68.4062 16.9844C68.3385 16.7708 68.2161 16.2747 68.0391 15.4961H68.0039C67.8529 16.1992 67.7331 16.6979 67.6445 16.9922L67.0703 19H66.0547L64.8438 14.6797H65.7812L66.332 16.8086C66.457 17.3346 66.5456 17.7852 66.5977 18.1602H66.6211C66.6471 17.9701 66.6862 17.7526 66.7383 17.5078C66.793 17.2604 66.8398 17.0755 66.8789 16.9531L67.5352 14.6797H68.543L69.1797 16.9531C69.2188 17.0807 69.2669 17.276 69.3242 17.5391C69.3841 17.8021 69.4193 18.0065 69.4297 18.1523H69.4609C69.5 17.832 69.5911 17.3841 69.7344 16.8086L70.293 14.6797H71.2148L69.9961 19H68.9648ZM75.7617 19H74.8398V16.3438C74.8398 16.0104 74.7721 15.7617 74.6367 15.5977C74.5039 15.4336 74.2917 15.3516 74 15.3516C73.612 15.3516 73.3281 15.4661 73.1484 15.6953C72.9688 15.9245 72.8789 16.3086 72.8789 16.8477V19H71.9609V14.6797H72.6797L72.8086 15.2461H72.8555C72.9857 15.0404 73.1706 14.8815 73.4102 14.7695C73.6497 14.6576 73.9154 14.6016 74.207 14.6016C75.2435 14.6016 75.7617 15.1289 75.7617 16.1836V19ZM77.957 19H77.0391V12.9219H77.957V19ZM83.1055 16.832C83.1055 17.5378 82.9245 18.0885 82.5625 18.4844C82.2005 18.8802 81.6966 19.0781 81.0508 19.0781C80.6471 19.0781 80.2904 18.987 79.9805 18.8047C79.6706 18.6224 79.4323 18.3607 79.2656 18.0195C79.099 17.6784 79.0156 17.2826 79.0156 16.832C79.0156 16.1315 79.1953 15.5846 79.5547 15.1914C79.9141 14.7982 80.4206 14.6016 81.0742 14.6016C81.6992 14.6016 82.194 14.8034 82.5586 15.207C82.9232 15.6081 83.1055 16.1497 83.1055 16.832ZM79.9609 16.832C79.9609 17.8294 80.3294 18.3281 81.0664 18.3281C81.7956 18.3281 82.1602 17.8294 82.1602 16.832C82.1602 15.8451 81.793 15.3516 81.0586 15.3516C80.6732 15.3516 80.3932 15.4792 80.2188 15.7344C80.0469 15.9896 79.9609 16.3555 79.9609 16.832ZM86.8672 19L86.6836 18.3984H86.6523C86.444 18.6615 86.2344 18.8411 86.0234 18.9375C85.8125 19.0312 85.5417 19.0781 85.2109 19.0781C84.7865 19.0781 84.4544 18.9635 84.2148 18.7344C83.9779 18.5052 83.8594 18.181 83.8594 17.7617C83.8594 17.3164 84.0247 16.9805 84.3555 16.7539C84.6862 16.5273 85.1901 16.4036 85.8672 16.3828L86.6133 16.3594V16.1289C86.6133 15.8529 86.5482 15.6471 86.418 15.5117C86.2904 15.3737 86.0911 15.3047 85.8203 15.3047C85.599 15.3047 85.3867 15.3372 85.1836 15.4023C84.9805 15.4674 84.7852 15.5443 84.5977 15.6328L84.3008 14.9766C84.5352 14.8542 84.7917 14.7617 85.0703 14.6992C85.349 14.6341 85.612 14.6016 85.8594 14.6016C86.4089 14.6016 86.8229 14.7214 87.1016 14.9609C87.3828 15.2005 87.5234 15.5768 87.5234 16.0898V19H86.8672ZM85.5 18.375C85.8333 18.375 86.1003 18.2826 86.3008 18.0977C86.5039 17.9102 86.6055 17.6484 86.6055 17.3125V16.9375L86.0508 16.9609C85.6185 16.9766 85.3034 17.0495 85.1055 17.1797C84.9102 17.3073 84.8125 17.5039 84.8125 17.7695C84.8125 17.9622 84.8698 18.112 84.9844 18.2188C85.099 18.3229 85.2708 18.375 85.5 18.375ZM90.2617 19.0781C89.7227 19.0781 89.3021 18.8828 89 18.4922C88.6979 18.1016 88.5469 17.5534 88.5469 16.8477C88.5469 16.1393 88.6992 15.5885 89.0039 15.1953C89.3112 14.7995 89.7357 14.6016 90.2773 14.6016C90.8451 14.6016 91.2773 14.8112 91.5742 15.2305H91.6211C91.5768 14.9206 91.5547 14.6758 91.5547 14.4961V12.9219H92.4766V19H91.7578L91.5977 18.4336H91.5547C91.2604 18.8633 90.8294 19.0781 90.2617 19.0781ZM90.5078 18.3359C90.8854 18.3359 91.1602 18.2305 91.332 18.0195C91.5039 17.806 91.5924 17.4609 91.5977 16.9844V16.8555C91.5977 16.3112 91.5091 15.9245 91.332 15.6953C91.1549 15.4661 90.8776 15.3516 90.5 15.3516C90.1771 15.3516 89.9284 15.4831 89.7539 15.7461C89.5794 16.0065 89.4922 16.3789 89.4922 16.8633C89.4922 17.3424 89.5768 17.7083 89.7461 17.9609C89.9154 18.2109 90.1693 18.3359 90.5078 18.3359ZM99.6992 16.832C99.6992 17.5378 99.5182 18.0885 99.1562 18.4844C98.7943 18.8802 98.2904 19.0781 97.6445 19.0781C97.2409 19.0781 96.8841 18.987 96.5742 18.8047C96.2643 18.6224 96.026 18.3607 95.8594 18.0195C95.6927 17.6784 95.6094 17.2826 95.6094 16.832C95.6094 16.1315 95.7891 15.5846 96.1484 15.1914C96.5078 14.7982 97.0143 14.6016 97.668 14.6016C98.293 14.6016 98.7878 14.8034 99.1523 15.207C99.5169 15.6081 99.6992 16.1497 99.6992 16.832ZM96.5547 16.832C96.5547 17.8294 96.9232 18.3281 97.6602 18.3281C98.3893 18.3281 98.7539 17.8294 98.7539 16.832C98.7539 15.8451 98.3867 15.3516 97.6523 15.3516C97.2669 15.3516 96.987 15.4792 96.8125 15.7344C96.6406 15.9896 96.5547 16.3555 96.5547 16.832ZM104.559 19H103.637V16.3438C103.637 16.0104 103.569 15.7617 103.434 15.5977C103.301 15.4336 103.089 15.3516 102.797 15.3516C102.409 15.3516 102.125 15.4661 101.945 15.6953C101.766 15.9245 101.676 16.3086 101.676 16.8477V19H100.758V14.6797H101.477L101.605 15.2461H101.652C101.783 15.0404 101.967 14.8815 102.207 14.7695C102.447 14.6576 102.712 14.6016 103.004 14.6016C104.04 14.6016 104.559 15.1289 104.559 16.1836V19ZM109.523 18.3359C109.747 18.3359 109.971 18.3008 110.195 18.2305V18.9219C110.094 18.9661 109.962 19.0026 109.801 19.0312C109.642 19.0625 109.477 19.0781 109.305 19.0781C108.435 19.0781 108 18.6198 108 17.7031V15.375H107.41V14.9688L108.043 14.6328L108.355 13.7188H108.922V14.6797H110.152V15.375H108.922V17.6875C108.922 17.9089 108.977 18.0729 109.086 18.1797C109.198 18.2839 109.344 18.3359 109.523 18.3359ZM114.863 19H113.941V16.3438C113.941 16.0104 113.874 15.7617 113.738 15.5977C113.605 15.4336 113.393 15.3516 113.102 15.3516C112.716 15.3516 112.432 15.4674 112.25 15.6992C112.07 15.9284 111.98 16.3138 111.98 16.8555V19H111.062V12.9219H111.98V14.4648C111.98 14.7122 111.965 14.9766 111.934 15.2578H111.992C112.117 15.0495 112.29 14.888 112.512 14.7734C112.736 14.6589 112.996 14.6016 113.293 14.6016C114.34 14.6016 114.863 15.1289 114.863 16.1836V19ZM118.027 19.0781C117.355 19.0781 116.829 18.8828 116.449 18.4922C116.072 18.099 115.883 17.5586 115.883 16.8711C115.883 16.1654 116.059 15.6107 116.41 15.207C116.762 14.8034 117.245 14.6016 117.859 14.6016C118.43 14.6016 118.88 14.7747 119.211 15.1211C119.542 15.4674 119.707 15.944 119.707 16.5508V17.0469H116.828C116.841 17.4661 116.954 17.7891 117.168 18.0156C117.382 18.2396 117.682 18.3516 118.07 18.3516C118.326 18.3516 118.562 18.3281 118.781 18.2812C119.003 18.2318 119.24 18.151 119.492 18.0391V18.7852C119.268 18.8919 119.042 18.9674 118.812 19.0117C118.583 19.056 118.322 19.0781 118.027 19.0781ZM117.859 15.2969C117.568 15.2969 117.333 15.3893 117.156 15.5742C116.982 15.7591 116.878 16.0286 116.844 16.3828H118.805C118.799 16.026 118.714 15.7565 118.547 15.5742C118.38 15.3893 118.151 15.2969 117.859 15.2969Z" fill="white"/>
<g clip-path="url(#clip0_6166_14669)">
<path d="M42.0781 37H27.9219C25.208 37 23 34.792 23 32.0781V17.9219C23 15.208 25.208 13 27.9219 13H42.0781C44.792 13 47 15.208 47 17.9219V32.0781C47 34.792 44.792 37 42.0781 37Z" fill="#00C3FF"/>
<path d="M42.0781 13H35V37H42.0781C44.792 37 47 34.792 47 32.0781V17.9219C47 15.208 44.792 13 42.0781 13Z" fill="#00AAF0"/>
<path d="M30.3897 31.4929C30.1729 31.8684 29.7781 32.0785 29.3728 32.0786C29.1741 32.0786 28.9729 32.0281 28.7888 31.9218C28.2292 31.5988 28.0368 30.8807 28.3599 30.3211L28.5904 29.9219H31.2967L30.3897 31.4929Z" fill="white"/>
<path d="M28.1797 28.9842C27.5335 28.9842 27.0078 28.4585 27.0078 27.8123C27.0078 27.1661 27.5335 26.6404 28.1797 26.6404H30.4849L33.6468 21.1638L32.7899 19.6796C32.4668 19.12 32.6592 18.4019 33.2188 18.0787H33.2188C33.7784 17.7557 34.4966 17.9481 34.8196 18.5077L35 18.8201L35.1804 18.5077C35.5036 17.9481 36.2217 17.7557 36.7812 18.0788C37.0522 18.2353 37.2462 18.488 37.3272 18.7904C37.4082 19.0927 37.3666 19.4085 37.2101 19.6796L33.1912 26.6404H35.7262L37.0794 28.9842H28.1797Z" fill="white"/>
<path d="M41.8201 28.9843H40.868L41.6397 30.321C41.9628 30.8805 41.7704 31.5986 41.2109 31.9217C41.0303 32.026 40.8298 32.0793 40.6268 32.0793C40.525 32.0793 40.4226 32.0659 40.3216 32.0388C40.0192 31.9578 39.7665 31.7639 39.61 31.4927L35.541 24.4452L36.8942 22.1014L39.5149 26.6406H41.8201C42.4663 26.6406 42.992 27.1663 42.992 27.8124C42.992 28.4586 42.4663 28.9843 41.8201 28.9843Z" fill="#F2F2F2"/>
<path d="M35 26.6406V28.9844H37.0794L35.7262 26.6406H35Z" fill="#F2F2F2"/>
<path d="M37.3272 18.7906C37.2461 18.4883 37.0522 18.2355 36.7812 18.0791C36.2217 17.756 35.5035 17.9483 35.1804 18.508L35 18.8204V23.5079L37.2101 19.6799C37.3666 19.4088 37.4082 19.093 37.3272 18.7906Z" fill="#F2F2F2"/>
</g>
<defs>
<clipPath id="clip0_6166_14669">
<rect width="24" height="24" fill="white" transform="translate(23 13)"/>
</clipPath>
</defs>
</svg>
