<?xml version="1.0" encoding="UTF-8"?>
<svg width="116px" height="52px" viewBox="0 0 116 52" version="1.1" xmlns="http://www.w3.org/2000/svg" xmlns:xlink="http://www.w3.org/1999/xlink">
    <title>86DA194B-8384-48CD-A5E1-410BD53CF0F9</title>
    <defs>
        <polygon id="path-1" points="0 0.554381176 115.404914 0.554381176 115.404914 50.7764706 0 50.7764706"></polygon>
    </defs>
    <g id="-" stroke="none" stroke-width="1" fill="none" fill-rule="evenodd">
        <g id="03-Areeba-Global-Homepage" transform="translate(-40.000000, -17.000000)">
            <g id="Group-16" transform="translate(40.000000, 17.000000)">
                <g id="Group-3" transform="translate(0.000000, 0.057506)">
                    <mask id="mask-2" fill="white">
                        <use xlink:href="#path-1"></use>
                    </mask>
                    <g id="Clip-2"></g>
                    <path d="M101.42481,50.7765929 L12.1102197,50.7765929 C5.42188808,50.7765929 -6.01036269e-05,45.2578635 -6.01036269e-05,38.4507576 L-6.01036269e-05,0.554381176 L100.32852,0.554381176 C111.84137,0.554381176 115.404914,6.47014588 115.404914,16.7373929 L115.404914,36.8259106 C115.404914,46.0421459 110.478821,50.7765929 101.42481,50.7765929" id="Fill-1" fill="#FF4238" mask="url(#mask-2)"></path>
                </g>
                <path d="M19.3543295,30.1039624 C19.079656,30.0574682 18.782143,30.0158682 18.4623917,29.9816094 C18.1414383,29.9467388 17.8559461,29.9296094 17.605314,29.9296094 C16.4843813,29.9296094 15.5984539,30.1333271 14.9469306,30.5401506 C14.2954073,30.9475859 13.9702466,31.6046212 13.9702466,32.5130918 C13.9702466,33.1181271 14.0946611,33.5830682 14.3470964,33.9097506 C14.5977285,34.2352094 14.9006508,34.4731859 15.2552622,34.6249035 C15.6098736,34.7766212 15.9873244,34.8689976 16.3870135,34.90448 C16.7873036,34.9387388 17.1359047,34.95648 17.4334176,34.95648 C17.7766093,34.95648 18.119801,34.9271153 18.4623917,34.8689976 C18.8055834,34.8096565 19.1018943,34.7582682 19.3543295,34.7111624 L19.3543295,30.1039624 Z M19.3543295,26.5086212 C19.3543295,25.95008 19.262972,25.4961506 19.079656,25.1468329 C18.8963399,24.7981271 18.6451067,24.5246682 18.3253554,24.3270682 C18.0044021,24.1294682 17.6107233,23.9954918 17.141314,23.9251388 C16.6731067,23.8553976 16.1526093,23.8205271 15.5822259,23.8205271 C14.3470964,23.8205271 13.031428,24.0652329 11.6376249,24.5534212 C11.3166715,23.9483859 11.0774591,23.3788329 10.9169824,22.8429271 C10.7571067,22.3076329 10.6771689,21.6683388 10.6771689,20.9232094 C11.6833036,20.5738918 12.6888373,20.3181741 13.6955731,20.1554447 C14.7017078,19.9927153 15.6381223,19.9107388 16.5078218,19.9107388 C18.8855212,19.9107388 20.7433244,20.4931388 22.0806301,21.6561035 C23.4185368,22.8202918 24.0868891,24.6818918 24.0868891,27.2409035 L24.0868891,37.7130918 C23.2863088,37.9694212 22.3144332,38.2153506 21.1718632,38.4472094 C20.0280912,38.6802918 18.7364642,38.7965271 17.2963813,38.7965271 C16.1297699,38.7965271 15.0605264,38.6919153 14.0892518,38.4808565 C13.1173762,38.2728565 12.2831378,37.9241506 11.5865368,37.4341271 C10.8887337,36.9459388 10.3514073,36.3176565 9.97455751,35.5486682 C9.5965057,34.7815153 9.40778031,33.8381741 9.40778031,32.7210918 C9.40778031,31.6046212 9.64278549,30.6686212 10.1115938,29.91248 C10.5792,29.1563388 11.1856456,28.5506918 11.9291275,28.0967624 C12.6720083,27.6428329 13.5002363,27.3167624 14.4150135,27.1191624 C15.3291896,26.9221741 16.2445679,26.8224565 17.1593451,26.8224565 C17.821687,26.8224565 18.5531482,26.8567153 19.3543295,26.92768 L19.3543295,26.5086212 Z" id="Fill-4" fill="#FFFFFE"></path>
                <path d="M25.9175855,20.3297976 C26.2607772,20.2600565 26.5865389,20.2074447 26.8948705,20.1725741 C27.2038031,20.1377035 27.5409845,20.1205741 27.9064145,20.1205741 C28.2496062,20.1205741 28.5867876,20.1438212 28.9185596,20.1897035 C29.2497306,20.2368094 29.5754922,20.2943153 29.8964456,20.3646682 C29.9643627,20.4815153 30.0274715,20.6497506 30.085171,20.8705976 C30.1410674,21.0920565 30.1927565,21.3245271 30.2390363,21.5692329 C30.284715,21.8133271 30.3249845,22.0580329 30.3592435,22.3021271 C30.3935026,22.5468329 30.4217513,22.7505506 30.4451917,22.9126682 C30.947658,22.1920094 31.5649223,21.5459859 32.2969845,20.9758212 C33.0284456,20.4056565 33.9432228,20.1205741 35.040715,20.1205741 C35.2691088,20.1205741 35.5317617,20.1321976 35.8298756,20.1554447 C36.1255855,20.1786918 36.3437617,20.2135624 36.4807979,20.2600565 C36.5264767,20.4931388 36.5607358,20.76048 36.5835751,21.0626918 C36.6064145,21.3655153 36.6184352,21.6799624 36.6184352,22.0054212 C36.6184352,22.4012329 36.6004041,22.8319153 36.5667461,23.2968565 C36.532487,23.7624094 36.4693782,24.2041035 36.3786218,24.6231624 C36.1255855,24.5766682 35.8467047,24.5534212 35.537171,24.5534212 L34.9715959,24.5534212 C34.5827254,24.5534212 34.1487772,24.5944094 33.6685492,24.6757741 C33.1883212,24.7577506 32.7309326,24.97248 32.2969845,25.3217976 C31.8624352,25.6705035 31.5024145,26.1935624 31.2163212,26.8921976 C30.9296269,27.5908329 30.7877824,28.5672094 30.7877824,29.8249976 L30.7877824,38.4123388 C30.3760725,38.4808565 29.9643627,38.5291859 29.5526528,38.5512094 C29.141544,38.57568 28.7412539,38.5873035 28.3523834,38.5873035 C27.963513,38.5873035 27.5692332,38.57568 27.169544,38.5512094 C26.7692539,38.5291859 26.3521347,38.4808565 25.9175855,38.4123388 L25.9175855,20.3297976 Z" id="Fill-6" fill="#FFFFFE"></path>
                <path d="M48.9491751,27.4161741 C48.9028953,26.2990918 48.5999731,25.3973506 48.0398073,24.7109506 C47.4796415,24.0245506 46.6964912,23.6807388 45.6909575,23.6807388 C44.5471855,23.6807388 43.678087,24.0074212 43.0842632,24.6583388 C42.4898383,25.3098682 42.135828,26.2293506 42.0210301,27.4161741 L48.9491751,27.4161741 Z M41.986771,30.8708094 C42.0781285,32.26808 42.5577554,33.2805506 43.4274549,33.9094447 C44.2959523,34.5377271 45.4391233,34.8515624 46.8569679,34.8515624 C47.6335067,34.8515624 48.4286777,34.7763153 49.2400767,34.6245976 C50.0514756,34.47288 50.8238073,34.2581506 51.5558694,33.9791859 C51.8065016,34.4441271 52.0240767,35.0020565 52.2073927,35.6548094 C52.3901078,36.3063388 52.492885,37.0043624 52.5157244,37.7494918 C50.7324497,38.4469035 48.7201803,38.7968329 46.4795171,38.7968329 C44.8332788,38.7968329 43.4214446,38.5637506 42.2440145,38.0981976 C41.0665845,37.6326447 40.1061285,36.9872329 39.3626466,36.1607388 C38.6197658,35.3342447 38.0710197,34.3517506 37.7176104,33.2108094 C37.3623979,32.0698682 37.1850922,30.8255388 37.1850922,29.4759859 C37.1850922,28.1490682 37.3678073,26.9041271 37.7338383,25.7405506 C38.0992684,24.5769741 38.6432062,23.5651153 39.3626466,22.7031388 C40.0832891,21.8429976 40.9746259,21.1621035 42.0384601,20.6610682 C43.1016933,20.1612565 44.3416311,19.9104329 45.7588746,19.9104329 C46.9940041,19.9104329 48.0914964,20.1325035 49.0519523,20.5735859 C50.0124083,21.0165035 50.8292166,21.6209271 51.5035793,22.3893035 C52.177942,23.15768 52.6870197,24.0710447 53.0308124,25.1293976 C53.3734031,26.1889741 53.5446984,27.3237976 53.5446984,28.5326447 C53.5446984,28.9755624 53.5272684,29.4123624 53.4936104,29.8424329 C53.4587503,30.2731153 53.4184808,30.6150918 53.3734031,30.8708094 L41.986771,30.8708094 Z" id="Fill-8" fill="#FFFFFE"></path>
                <path d="M66.9626528,27.4161741 C66.9169741,26.2990918 66.6134508,25.3973506 66.053886,24.7109506 C65.4937202,24.0245506 64.7105699,23.6807388 63.7044352,23.6807388 C62.5606632,23.6807388 61.6915648,24.0074212 61.0977409,24.6583388 C60.5039171,25.3098682 60.1493057,26.2293506 60.0351088,27.4161741 L66.9626528,27.4161741 Z M60.0002487,30.8708094 C60.0916062,32.26808 60.5718342,33.2805506 61.4409326,33.9094447 C62.3100311,34.5377271 63.452601,34.8515624 64.8704456,34.8515624 C65.6475855,34.8515624 66.4427565,34.7763153 67.2541554,34.6245976 C68.0655544,34.47288 68.837285,34.2581506 69.5699482,33.9791859 C69.8205803,34.4441271 70.0375544,35.0020565 70.2214715,35.6548094 C70.4041865,36.3063388 70.5063627,37.0043624 70.5292021,37.7494918 C68.7465285,38.4469035 66.733658,38.7968329 64.4935959,38.7968329 C62.8467565,38.7968329 61.4355233,38.5637506 60.2580933,38.0981976 C59.0806632,37.6326447 58.1202073,36.9872329 57.3767254,36.1607388 C56.6332435,35.3342447 56.0844974,34.3517506 55.7310881,33.2108094 C55.3758756,32.0698682 55.199171,30.8255388 55.199171,29.4759859 C55.199171,28.1490682 55.381886,26.9041271 55.7479171,25.7405506 C56.1133472,24.5769741 56.657285,23.5651153 57.3767254,22.7031388 C58.0973679,21.8429976 58.9881036,21.1621035 60.0525389,20.6610682 C61.115171,20.1612565 62.3551088,19.9104329 63.7723523,19.9104329 C65.0074819,19.9104329 66.1049741,20.1325035 67.0654301,20.5735859 C68.026487,21.0165035 68.8432953,21.6209271 69.517658,22.3893035 C70.1914197,23.15768 70.7010984,24.0710447 71.0442902,25.1293976 C71.3868808,26.1889741 71.5581762,27.3237976 71.5581762,28.5326447 C71.5581762,28.9755624 71.5407461,29.4123624 71.5076891,29.8424329 C71.472829,30.2731153 71.4325596,30.6150918 71.3868808,30.8708094 L60.0002487,30.8708094 Z" id="Fill-10" fill="#FFFFFE"></path>
                <path d="M78.2432622,34.4681694 C78.5179358,34.5599341 78.8088373,34.6186635 79.1177699,34.6419106 C79.4267026,34.6651576 79.7404435,34.6773929 80.0595938,34.6773929 C81.5471585,34.6773929 82.7131689,34.2350871 83.5588269,33.3510871 C84.404485,32.4670871 84.8282155,31.08144 84.8282155,29.1965929 C84.8282155,27.5209694 84.5649617,26.2466635 84.039656,25.3736753 C83.5137492,24.5012988 82.6212104,24.0651106 81.3644435,24.0651106 C80.4496663,24.0651106 79.7013762,24.37344 79.1177699,24.9900988 C78.5341637,25.6067576 78.2432622,26.5788518 78.2432622,27.9045459 L78.2432622,34.4681694 Z M73.4079254,12.8594165 C74.230744,12.7199341 75.0301223,12.6495812 75.8084642,12.6495812 C76.6078425,12.6495812 77.4204435,12.7199341 78.2432622,12.8594165 L78.2432622,22.0756518 C78.5858528,21.4467576 79.1574383,20.9292047 79.9580187,20.5217694 C80.758599,20.1149459 81.6727751,19.9106165 82.7017492,19.9106165 C83.7307233,19.9106165 84.6851689,20.0978165 85.565687,20.4691576 C86.4450031,20.8423341 87.205915,21.4063812 87.8466197,22.1625224 C88.4861223,22.9186635 88.9897907,23.8675106 89.3546197,25.00784 C89.7212518,26.1469459 89.9033658,27.4971106 89.9033658,29.0558871 C89.9033658,30.5700047 89.6755731,31.9256753 89.2175834,33.1241224 C88.7607959,34.3225694 88.0978528,35.3405459 87.2287544,36.1780518 C86.360257,37.0161694 85.2958218,37.6621929 84.039656,38.1161224 C82.7822881,38.56944 81.3644435,38.7964047 79.7861223,38.7964047 C79.283656,38.7964047 78.7517389,38.7719341 78.1921741,38.7260518 C77.6314073,38.6801694 77.0652311,38.6147106 76.4942466,38.5339576 C75.9232622,38.4532047 75.3745161,38.3492047 74.8480083,38.2207341 C74.3221016,38.0922635 73.8412725,37.9466635 73.4079254,37.7839341 L73.4079254,12.8594165 Z" id="Fill-12" fill="#FFFFFE"></path>
                <path d="M101.265175,30.1039624 C100.991103,30.0574682 100.692989,30.0158682 100.373237,29.9816094 C100.052284,29.9467388 99.7673927,29.9296094 99.5161596,29.9296094 C98.3952269,29.9296094 97.5099005,30.1333271 96.8583772,30.5401506 C96.2068539,30.9475859 95.8810922,31.6046212 95.8810922,32.5130918 C95.8810922,33.1181271 96.0055067,33.5830682 96.257942,33.9097506 C96.5091751,34.2352094 96.8120974,34.4731859 97.1667088,34.6249035 C97.5207192,34.7766212 97.8981699,34.8689976 98.2978591,34.90448 C98.6981492,34.9387388 99.0467503,34.95648 99.3448642,34.95648 C99.6874549,34.95648 100.030647,34.9271153 100.373237,34.8689976 C100.716429,34.8096565 101.01274,34.7582682 101.265175,34.7111624 L101.265175,30.1039624 Z M101.265175,26.5086212 C101.265175,25.95008 101.173818,25.4961506 100.991103,25.1468329 C100.807185,24.7981271 100.555351,24.5246682 100.236201,24.3270682 C99.9152477,24.1294682 99.5215689,23.9954918 99.0521596,23.9251388 C98.5833513,23.8553976 98.0634549,23.8205271 97.4930715,23.8205271 C96.257942,23.8205271 94.9416725,24.0652329 93.5484705,24.5534212 C93.2281181,23.9483859 92.9883047,23.3788329 92.827828,22.8429271 C92.6679523,22.3076329 92.5874135,21.6683388 92.5874135,20.9232094 C93.5935482,20.5738918 94.5996829,20.3181741 95.6064187,20.1554447 C96.6125534,19.9927153 97.5489679,19.9107388 98.4186674,19.9107388 C100.796968,19.9107388 102.654771,20.4931388 103.991476,21.6561035 C105.329382,22.8202918 105.997735,24.6818918 105.997735,27.2409035 L105.997735,37.7130918 C105.197154,37.9694212 104.22588,38.2153506 103.082108,38.4472094 C101.938937,38.6802918 100.647911,38.7965271 99.2072269,38.7965271 C98.0412166,38.7965271 96.970771,38.6919153 96.0000974,38.4808565 C95.0282218,38.2728565 94.1939834,37.9241506 93.4973824,37.4341271 C92.7995793,36.9459388 92.2622528,36.3176565 91.8854031,35.5486682 C91.5073513,34.7815153 91.3186259,33.8381741 91.3186259,32.7210918 C91.3186259,31.6046212 91.5536311,30.6686212 92.0224394,29.91248 C92.4900456,29.1563388 93.0964912,28.5506918 93.8399731,28.0967624 C94.5828539,27.6428329 95.4116829,27.3167624 96.3258591,27.1191624 C97.2406363,26.9221741 98.1554135,26.8224565 99.0701907,26.8224565 C99.7325326,26.8224565 100.463994,26.8567153 101.265175,26.92768 L101.265175,26.5086212 Z" id="Fill-14" fill="#FFFFFE"></path>
            </g>
        </g>
    </g>
</svg>