<svg width="145" height="50" viewBox="0 0 145 50" fill="none" xmlns="http://www.w3.org/2000/svg">
<rect width="145" height="50" rx="5" fill="#0C2A4D"/>
<path d="M52.0518 30.3877H56.0166V35.5693C55.374 35.779 54.7679 35.9248 54.1982 36.0068C53.6331 36.0934 53.0544 36.1367 52.4619 36.1367C50.9535 36.1367 49.8005 35.6947 49.0029 34.8105C48.21 33.9219 47.8135 32.6481 47.8135 30.9893C47.8135 29.376 48.2738 28.1182 49.1943 27.2158C50.1195 26.3135 51.4001 25.8623 53.0361 25.8623C54.0615 25.8623 55.0505 26.0674 56.0029 26.4775L55.2988 28.1729C54.5697 27.8083 53.8109 27.626 53.0225 27.626C52.1064 27.626 51.3727 27.9336 50.8213 28.5488C50.2699 29.1641 49.9941 29.9912 49.9941 31.0303C49.9941 32.1149 50.2152 32.9443 50.6572 33.5186C51.1038 34.0882 51.751 34.373 52.5986 34.373C53.0407 34.373 53.4896 34.3275 53.9453 34.2363V32.1514H52.0518V30.3877ZM59.8994 32.165C59.8994 32.9215 60.0225 33.4935 60.2686 33.8809C60.5192 34.2682 60.9248 34.4619 61.4854 34.4619C62.0413 34.4619 62.4401 34.2705 62.6816 33.8877C62.9277 33.5003 63.0508 32.9261 63.0508 32.165C63.0508 31.4085 62.9277 30.8411 62.6816 30.4629C62.4355 30.0846 62.0322 29.8955 61.4717 29.8955C60.9157 29.8955 60.5146 30.0846 60.2686 30.4629C60.0225 30.8366 59.8994 31.404 59.8994 32.165ZM65.1836 32.165C65.1836 33.4092 64.8555 34.3822 64.1992 35.084C63.543 35.7858 62.6292 36.1367 61.458 36.1367C60.7243 36.1367 60.0771 35.9772 59.5166 35.6582C58.9561 35.3346 58.5254 34.8721 58.2246 34.2705C57.9238 33.6689 57.7734 32.9671 57.7734 32.165C57.7734 30.9163 58.0993 29.9456 58.751 29.2529C59.4027 28.5602 60.3187 28.2139 61.499 28.2139C62.2327 28.2139 62.8799 28.3734 63.4404 28.6924C64.001 29.0114 64.4316 29.4694 64.7324 30.0664C65.0332 30.6634 65.1836 31.363 65.1836 32.165ZM68.5674 32.165C68.5674 32.9215 68.6904 33.4935 68.9365 33.8809C69.1872 34.2682 69.5928 34.4619 70.1533 34.4619C70.7093 34.4619 71.1081 34.2705 71.3496 33.8877C71.5957 33.5003 71.7188 32.9261 71.7188 32.165C71.7188 31.4085 71.5957 30.8411 71.3496 30.4629C71.1035 30.0846 70.7002 29.8955 70.1396 29.8955C69.5837 29.8955 69.1826 30.0846 68.9365 30.4629C68.6904 30.8366 68.5674 31.404 68.5674 32.165ZM73.8516 32.165C73.8516 33.4092 73.5234 34.3822 72.8672 35.084C72.2109 35.7858 71.2972 36.1367 70.126 36.1367C69.3923 36.1367 68.7451 35.9772 68.1846 35.6582C67.624 35.3346 67.1934 34.8721 66.8926 34.2705C66.5918 33.6689 66.4414 32.9671 66.4414 32.165C66.4414 30.9163 66.7673 29.9456 67.4189 29.2529C68.0706 28.5602 68.9867 28.2139 70.167 28.2139C70.9007 28.2139 71.5479 28.3734 72.1084 28.6924C72.6689 29.0114 73.0996 29.4694 73.4004 30.0664C73.7012 30.6634 73.8516 31.363 73.8516 32.165ZM82.2256 28.3574V29.417L81.0293 29.7246C81.248 30.0664 81.3574 30.4492 81.3574 30.873C81.3574 31.6934 81.0703 32.3337 80.4961 32.7939C79.9264 33.2497 79.1335 33.4775 78.1172 33.4775L77.7412 33.457L77.4336 33.4229C77.2194 33.5869 77.1123 33.7692 77.1123 33.9697C77.1123 34.2705 77.4951 34.4209 78.2607 34.4209H79.5596C80.3981 34.4209 81.0361 34.6009 81.4736 34.9609C81.9157 35.321 82.1367 35.8496 82.1367 36.5469C82.1367 37.4401 81.763 38.1328 81.0156 38.625C80.2728 39.1172 79.2041 39.3633 77.8096 39.3633C76.7432 39.3633 75.9274 39.1764 75.3623 38.8027C74.8018 38.4336 74.5215 37.9141 74.5215 37.2441C74.5215 36.7839 74.665 36.3988 74.9521 36.0889C75.2393 35.779 75.6608 35.5579 76.2168 35.4258C76.0026 35.3346 75.8158 35.1865 75.6562 34.9814C75.4967 34.7718 75.417 34.5508 75.417 34.3184C75.417 34.0267 75.5013 33.7852 75.6699 33.5938C75.8385 33.3978 76.0824 33.2064 76.4014 33.0195C76.0003 32.8464 75.6813 32.5684 75.4443 32.1855C75.2119 31.8027 75.0957 31.3516 75.0957 30.832C75.0957 29.998 75.3669 29.3532 75.9092 28.8975C76.4515 28.4417 77.2262 28.2139 78.2334 28.2139C78.4476 28.2139 78.7005 28.2344 78.9922 28.2754C79.2884 28.3118 79.4775 28.3392 79.5596 28.3574H82.2256ZM76.3262 37.0801C76.3262 37.3672 76.4629 37.5928 76.7363 37.7568C77.0143 37.9209 77.4017 38.0029 77.8984 38.0029C78.6458 38.0029 79.2314 37.9004 79.6553 37.6953C80.0791 37.4902 80.291 37.21 80.291 36.8545C80.291 36.5674 80.1657 36.3691 79.915 36.2598C79.6644 36.1504 79.277 36.0957 78.7529 36.0957H77.6729C77.29 36.0957 76.9688 36.1846 76.709 36.3623C76.4538 36.5446 76.3262 36.7839 76.3262 37.0801ZM77.085 30.8594C77.085 31.2741 77.1784 31.6022 77.3652 31.8438C77.5566 32.0853 77.846 32.2061 78.2334 32.2061C78.6253 32.2061 78.9124 32.0853 79.0947 31.8438C79.277 31.6022 79.3682 31.2741 79.3682 30.8594C79.3682 29.9388 78.9899 29.4785 78.2334 29.4785C77.4678 29.4785 77.085 29.9388 77.085 30.8594ZM85.5752 36H83.4902V25.3633H85.5752V36ZM90.9346 29.6973C90.4925 29.6973 90.1462 29.8385 89.8955 30.1211C89.6449 30.3991 89.5013 30.7956 89.4648 31.3105H92.3906C92.3815 30.7956 92.2471 30.3991 91.9873 30.1211C91.7275 29.8385 91.3766 29.6973 90.9346 29.6973ZM91.2285 36.1367C89.998 36.1367 89.0365 35.7972 88.3438 35.1182C87.651 34.4391 87.3047 33.4775 87.3047 32.2334C87.3047 30.9528 87.6237 29.9639 88.2617 29.2666C88.9043 28.5648 89.7907 28.2139 90.9209 28.2139C92.001 28.2139 92.8418 28.5215 93.4434 29.1367C94.0449 29.752 94.3457 30.6019 94.3457 31.6865V32.6982H89.417C89.4398 33.2907 89.6152 33.7533 89.9434 34.0859C90.2715 34.4186 90.7318 34.585 91.3242 34.585C91.7845 34.585 92.2197 34.5371 92.6299 34.4414C93.04 34.3457 93.4684 34.193 93.915 33.9834V35.5967C93.5505 35.779 93.1608 35.9134 92.7461 36C92.3314 36.0911 91.8255 36.1367 91.2285 36.1367ZM101.961 30.709H102.658C103.31 30.709 103.798 30.5814 104.121 30.3262C104.445 30.0664 104.606 29.6904 104.606 29.1982C104.606 28.7015 104.47 28.3346 104.196 28.0977C103.927 27.8607 103.504 27.7422 102.925 27.7422H101.961V30.709ZM106.746 29.123C106.746 30.1986 106.409 31.0212 105.734 31.5908C105.064 32.1605 104.11 32.4453 102.87 32.4453H101.961V36H99.8418V26.0059H103.034C104.246 26.0059 105.167 26.2679 105.796 26.792C106.429 27.3115 106.746 28.0885 106.746 29.123ZM110.554 36H108.469V25.3633H110.554V36ZM117.602 36L117.198 34.9609H117.144C116.793 35.403 116.43 35.7106 116.057 35.8838C115.688 36.0524 115.204 36.1367 114.607 36.1367C113.874 36.1367 113.295 35.9271 112.871 35.5078C112.452 35.0885 112.242 34.4915 112.242 33.7168C112.242 32.9056 112.525 32.3086 113.09 31.9258C113.66 31.5384 114.516 31.3242 115.66 31.2832L116.986 31.2422V30.9072C116.986 30.1325 116.59 29.7451 115.797 29.7451C115.186 29.7451 114.468 29.9297 113.644 30.2988L112.953 28.8906C113.833 28.4303 114.808 28.2002 115.879 28.2002C116.904 28.2002 117.69 28.4235 118.237 28.8701C118.784 29.3167 119.058 29.9958 119.058 30.9072V36H117.602ZM116.986 32.459L116.18 32.4863C115.574 32.5046 115.122 32.6139 114.826 32.8145C114.53 33.015 114.382 33.3203 114.382 33.7305C114.382 34.3184 114.719 34.6123 115.394 34.6123C115.877 34.6123 116.262 34.4733 116.549 34.1953C116.84 33.9173 116.986 33.5482 116.986 33.0879V32.459ZM120.117 28.3574H122.4L123.843 32.6572C123.966 33.0309 124.05 33.473 124.096 33.9834H124.137C124.187 33.514 124.285 33.0719 124.431 32.6572L125.846 28.3574H128.081L124.848 36.9775C124.551 37.7751 124.128 38.3721 123.576 38.7686C123.029 39.165 122.389 39.3633 121.655 39.3633C121.295 39.3633 120.942 39.3245 120.596 39.2471V37.5928C120.846 37.652 121.12 37.6816 121.416 37.6816C121.785 37.6816 122.106 37.5677 122.38 37.3398C122.658 37.1165 122.874 36.777 123.029 36.3213L123.152 35.9453L120.117 28.3574Z" fill="white"/>
<path d="M50.0898 15.9023H52.1914V18.7695C51.8477 18.8815 51.5169 18.9609 51.1992 19.0078C50.8841 19.0547 50.543 19.0781 50.1758 19.0781C49.3112 19.0781 48.6445 18.8229 48.1758 18.3125C47.707 17.7995 47.4727 17.0768 47.4727 16.1445C47.4727 15.2253 47.737 14.5065 48.2656 13.9883C48.7943 13.4674 49.5221 13.207 50.4492 13.207C51.0456 13.207 51.6107 13.3216 52.1445 13.5508L51.8164 14.3281C51.3529 14.1146 50.8893 14.0078 50.4258 14.0078C49.8164 14.0078 49.3346 14.1992 48.9805 14.582C48.6263 14.9648 48.4492 15.4883 48.4492 16.1523C48.4492 16.8503 48.6081 17.3815 48.9258 17.7461C49.2461 18.1081 49.7057 18.2891 50.3047 18.2891C50.6068 18.2891 50.9297 18.2513 51.2734 18.1758V16.7031H50.0898V15.9023ZM55.3555 19.0781C54.6836 19.0781 54.1576 18.8828 53.7773 18.4922C53.3997 18.099 53.2109 17.5586 53.2109 16.8711C53.2109 16.1654 53.3867 15.6107 53.7383 15.207C54.0898 14.8034 54.5729 14.6016 55.1875 14.6016C55.7578 14.6016 56.2083 14.7747 56.5391 15.1211C56.8698 15.4674 57.0352 15.944 57.0352 16.5508V17.0469H54.1562C54.1693 17.4661 54.2826 17.7891 54.4961 18.0156C54.7096 18.2396 55.0104 18.3516 55.3984 18.3516C55.6536 18.3516 55.8906 18.3281 56.1094 18.2812C56.3307 18.2318 56.5677 18.151 56.8203 18.0391V18.7852C56.5964 18.8919 56.3698 18.9674 56.1406 19.0117C55.9115 19.056 55.6497 19.0781 55.3555 19.0781ZM55.1875 15.2969C54.8958 15.2969 54.6615 15.3893 54.4844 15.5742C54.3099 15.7591 54.2057 16.0286 54.1719 16.3828H56.1328C56.1276 16.026 56.0417 15.7565 55.875 15.5742C55.7083 15.3893 55.4792 15.2969 55.1875 15.2969ZM59.6875 18.3359C59.9115 18.3359 60.1354 18.3008 60.3594 18.2305V18.9219C60.2578 18.9661 60.1263 19.0026 59.9648 19.0312C59.806 19.0625 59.6406 19.0781 59.4688 19.0781C58.599 19.0781 58.1641 18.6198 58.1641 17.7031V15.375H57.5742V14.9688L58.207 14.6328L58.5195 13.7188H59.0859V14.6797H60.3164V15.375H59.0859V17.6875C59.0859 17.9089 59.1406 18.0729 59.25 18.1797C59.362 18.2839 59.5078 18.3359 59.6875 18.3359ZM64.2227 19H63.3047V14.6797H64.2227V19ZM63.25 13.5352C63.25 13.3711 63.2943 13.2448 63.3828 13.1562C63.474 13.0677 63.6029 13.0234 63.7695 13.0234C63.931 13.0234 64.056 13.0677 64.1445 13.1562C64.2357 13.2448 64.2812 13.3711 64.2812 13.5352C64.2812 13.6914 64.2357 13.8151 64.1445 13.9062C64.056 13.9948 63.931 14.0391 63.7695 14.0391C63.6029 14.0391 63.474 13.9948 63.3828 13.9062C63.2943 13.8151 63.25 13.6914 63.25 13.5352ZM67.1484 18.3359C67.3724 18.3359 67.5964 18.3008 67.8203 18.2305V18.9219C67.7188 18.9661 67.5872 19.0026 67.4258 19.0312C67.2669 19.0625 67.1016 19.0781 66.9297 19.0781C66.0599 19.0781 65.625 18.6198 65.625 17.7031V15.375H65.0352V14.9688L65.668 14.6328L65.9805 13.7188H66.5469V14.6797H67.7773V15.375H66.5469V17.6875C66.5469 17.9089 66.6016 18.0729 66.7109 18.1797C66.8229 18.2839 66.9688 18.3359 67.1484 18.3359ZM74.5977 16.832C74.5977 17.5378 74.4167 18.0885 74.0547 18.4844C73.6927 18.8802 73.1888 19.0781 72.543 19.0781C72.1393 19.0781 71.7826 18.987 71.4727 18.8047C71.1628 18.6224 70.9245 18.3607 70.7578 18.0195C70.5911 17.6784 70.5078 17.2826 70.5078 16.832C70.5078 16.1315 70.6875 15.5846 71.0469 15.1914C71.4062 14.7982 71.9128 14.6016 72.5664 14.6016C73.1914 14.6016 73.6862 14.8034 74.0508 15.207C74.4154 15.6081 74.5977 16.1497 74.5977 16.832ZM71.4531 16.832C71.4531 17.8294 71.8216 18.3281 72.5586 18.3281C73.2878 18.3281 73.6523 17.8294 73.6523 16.832C73.6523 15.8451 73.2852 15.3516 72.5508 15.3516C72.1654 15.3516 71.8854 15.4792 71.7109 15.7344C71.5391 15.9896 71.4531 16.3555 71.4531 16.832ZM79.457 19H78.5352V16.3438C78.5352 16.0104 78.4674 15.7617 78.332 15.5977C78.1992 15.4336 77.987 15.3516 77.6953 15.3516C77.3073 15.3516 77.0234 15.4661 76.8438 15.6953C76.6641 15.9245 76.5742 16.3086 76.5742 16.8477V19H75.6562V14.6797H76.375L76.5039 15.2461H76.5508C76.681 15.0404 76.8659 14.8815 77.1055 14.7695C77.3451 14.6576 77.6107 14.6016 77.9023 14.6016C78.9388 14.6016 79.457 15.1289 79.457 16.1836V19Z" fill="white"/>
<g clip-path="url(#clip0_6166_14668)">
<path d="M33.9239 21.2322C31.1359 19.6728 26.661 17.1688 19.7201 13.2824C19.2521 12.9734 18.7137 12.9329 18.2485 13.0903L30.1572 24.9989L33.9239 21.2322Z" fill="#32BBFF"/>
<path d="M18.2484 13.0903C18.1612 13.1198 18.0763 13.1555 17.9952 13.1985C17.4815 13.4764 17.104 14.0111 17.104 14.6873V35.3105C17.104 35.9868 17.4814 36.5215 17.9952 36.7993C18.0762 36.8423 18.161 36.8781 18.2481 36.9078L30.157 24.9989L18.2484 13.0903Z" fill="#32BBFF"/>
<path d="M30.1569 24.9991L18.248 36.908C18.7134 37.0666 19.2518 37.0292 19.7199 36.7156C26.451 32.9464 30.8755 30.4721 33.6958 28.8994C33.7743 28.8553 33.8512 28.8122 33.9272 28.7695L30.1569 24.9991Z" fill="#32BBFF"/>
<path d="M17.104 24.9991V35.3107C17.104 35.987 17.4814 36.5217 17.9952 36.7995C18.0762 36.8425 18.161 36.8783 18.2481 36.908L30.157 24.9991H17.104Z" fill="#2C9FD9"/>
<path d="M19.7198 13.2827C19.1641 12.9157 18.5088 12.9262 17.9951 13.1988L29.9762 25.1799L33.9236 21.2324C31.1356 19.673 26.6607 17.169 19.7198 13.2827Z" fill="#29CC5E"/>
<path d="M29.9762 24.8185L17.9951 36.7995C18.5089 37.0721 19.1641 37.0878 19.7198 36.7156C26.451 32.9464 30.8755 30.4721 33.6957 28.8994C33.7743 28.8553 33.8512 28.8122 33.9272 28.7695L29.9762 24.8185Z" fill="#D93F21"/>
<path d="M38.8961 24.9992C38.8961 24.4277 38.6077 23.8511 38.0363 23.5313C38.0363 23.5313 36.9676 22.935 33.6918 21.1028L29.7954 24.9992L33.6956 28.8994C36.9354 27.0803 38.0362 26.467 38.0362 26.467C38.6077 26.1472 38.8961 25.5706 38.8961 24.9992Z" fill="#FFD500"/>
<path d="M38.0363 26.467C38.6077 26.1472 38.8961 25.5705 38.8961 24.9991H29.7954L33.6956 28.8994C36.9355 27.0803 38.0363 26.467 38.0363 26.467Z" fill="#FFAA00"/>
</g>
<defs>
<clipPath id="clip0_6166_14668">
<rect width="24" height="24" fill="white" transform="translate(16 13)"/>
</clipPath>
</defs>
</svg>
